<svg xmlns="http://www.w3.org/2000/svg" height="20" width="20"><path d="M10 17.792q-1.604 0-3.021-.615Q5.562 16.562 4.5 15.5t-1.677-2.479Q2.208 11.604 2.208 10q0-1.625.615-3.031Q3.438 5.562 4.5 4.49q1.062-1.073 2.479-1.677Q8.396 2.208 10 2.208q1.625 0 3.031.615 1.407.615 2.479 1.677 1.073 1.062 1.678 2.479.604 1.417.604 3.021 0 1.604-.615 3.021-.615 1.417-1.677 2.479t-2.479 1.677q-1.417.615-3.021.615Zm-.979-1.459v-1.416q-.396 0-.677-.282-.282-.281-.282-.677v-.979L3.75 8.667q-.062.333-.104.656-.042.323-.042.677 0 2.417 1.563 4.198 1.562 1.781 3.854 2.135Zm5.896-2.25q-1.188 1.188-1.105.959.084-.23.657-1.115.573-.885 1.25-2.052T16.396 10q0-2.021-1.094-3.604-1.094-1.584-2.844-2.313v.5q0 .605-.437 1.042-.438.437-1.042.437H9.021v.959q0 .417-.292.708-.291.292-.708.292h-.979V10h4.916q.417 0 .709.292.291.291.291.708v1.958h.854q.459 0 .782.323t.323.802Z"/></svg>